<svg width="2229" height="385" viewBox="0 0 642.26 100.473" xmlns="http://www.w3.org/2000/svg"><g id="svgGroup" stroke-linecap="round" fill-rule="evenodd" font-size="9pt" stroke="#7a685a" stroke-width="0.25mm" fill="#b09886" style="stroke:#7a685a;stroke-width:0.25mm;fill:#b09886"><path d="M 62.56 56.533 L 62.56 64.833 Q 62.56 65.833 62.66 66.883 Q 62.76 67.933 62.56 68.933 Q 62.46 69.133 62.46 69.283 Q 62.46 69.433 62.36 69.633 Q 62.26 69.633 62.26 69.683 L 62.26 69.733 L 62.06 69.933 Q 61.96 70.133 61.46 70.633 L 61.26 70.833 Q 61.06 71.033 60.86 71.133 Q 60.46 72.033 60.36 72.933 Q 60.26 73.833 59.76 74.633 Q 59.06 76.033 58.26 74.933 Q 57.86 74.433 57.66 73.833 Q 57.46 73.233 57.26 72.533 Q 57.16 72.733 57.16 73.033 Q 57.16 73.333 57.06 73.533 Q 57.06 73.633 56.66 73.633 Q 56.26 73.733 55.91 73.833 Q 55.56 73.933 55.06 74.133 Q 54.76 74.433 54.66 74.233 Q 54.56 73.733 54.51 73.283 Q 54.46 72.833 54.46 72.433 Q 54.06 72.933 53.96 73.833 Q 53.86 75.733 53.86 77.633 Q 53.86 79.533 53.66 81.433 Q 53.66 81.533 53.51 81.433 Q 53.36 81.333 53.36 81.233 L 53.16 79.633 Q 53.06 78.833 52.96 78.133 Q 52.86 77.033 52.86 75.933 Q 52.86 74.833 52.66 73.733 Q 52.26 74.133 51.66 74.833 Q 51.06 75.533 50.56 76.033 Q 50.46 76.133 50.26 76.233 L 49.96 76.533 Q 49.86 76.633 49.61 77.183 Q 49.36 77.733 49.06 77.833 Q 48.86 77.833 48.66 77.533 Q 48.56 77.233 48.51 76.933 Q 48.46 76.633 48.26 76.333 Q 47.76 75.933 47.31 75.333 Q 46.86 74.733 46.26 74.533 Q 46.06 74.433 45.51 74.633 Q 44.96 74.833 44.26 75.033 Q 43.96 75.333 43.86 75.233 Q 43.66 74.933 43.71 74.283 Q 43.76 73.633 43.46 73.833 Q 43.06 74.133 43.31 75.033 Q 43.56 75.933 43.06 75.833 Q 42.56 75.633 42.76 74.883 Q 42.96 74.133 42.76 73.633 L 42.46 73.633 Q 42.16 73.533 41.91 73.583 Q 41.66 73.633 41.36 73.733 Q 41.26 74.433 41.26 75.133 Q 41.26 75.833 41.06 76.533 Q 40.96 76.933 40.36 77.283 Q 39.76 77.633 39.46 77.833 Q 38.76 78.433 38.36 79.233 Q 37.96 80.033 37.46 80.833 Q 37.16 81.333 36.71 81.983 Q 36.26 82.633 35.46 82.533 Q 34.96 82.533 34.51 82.283 Q 34.06 82.033 33.46 82.233 Q 33.06 82.333 32.71 82.533 Q 32.36 82.733 31.86 82.733 Q 31.76 82.733 31.66 82.783 Q 31.56 82.833 31.46 82.733 Q 31.36 80.433 31.36 78.033 Q 31.36 75.633 31.16 73.433 L 30.46 73.433 Q 30.06 74.033 29.71 74.683 Q 29.36 75.333 29.06 76.033 Q 28.76 76.433 28.51 76.933 Q 28.26 77.433 27.96 77.833 Q 27.56 78.333 26.96 78.633 Q 26.76 80.833 26.76 83.033 Q 26.76 85.233 26.56 87.433 Q 26.46 89.033 26.41 90.683 Q 26.36 92.333 26.16 94.033 Q 26.06 95.033 26.01 95.983 Q 25.96 96.933 25.76 97.933 Q 25.76 98.133 25.66 98.533 Q 25.56 98.933 25.36 98.833 Q 25.16 98.333 25.11 97.833 Q 25.06 97.333 25.06 96.933 L 24.86 94.733 Q 24.76 93.633 24.66 92.633 Q 24.26 88.833 24.36 86.133 Q 24.46 83.433 23.66 80.433 Q 23.46 80.633 23.26 80.883 Q 23.06 81.133 22.86 81.433 Q 22.76 81.533 22.66 81.583 Q 22.56 81.633 22.46 81.833 L 21.86 82.233 Q 21.76 84.433 21.71 87.083 Q 21.66 89.733 21.56 92.033 Q 21.56 92.933 21.51 94.433 Q 21.46 95.933 21.41 97.383 Q 21.36 98.833 21.31 99.433 Q 21.26 100.033 21.16 99.133 Q 20.06 98.033 20.16 97.433 Q 20.26 96.833 20.76 96.333 Q 21.26 95.833 21.36 95.233 Q 21.46 94.633 20.36 93.533 Q 20.06 92.033 20.01 89.833 Q 19.96 87.633 20.01 85.433 Q 20.06 83.233 19.96 81.733 Q 19.66 81.433 19.56 81.233 Q 19.46 81.233 19.46 81.183 L 19.46 81.133 Q 19.06 80.633 18.81 80.183 Q 18.56 79.733 18.36 79.333 Q 17.96 78.533 17.51 77.833 Q 17.06 77.133 16.56 76.433 L 14.76 73.533 Q 14.56 73.333 14.36 73.033 L 13.96 72.433 L 13.56 72.433 Q 13.36 73.733 13.36 75.083 Q 13.36 76.433 13.16 77.833 L 12.76 77.833 Q 12.66 77.833 12.11 77.783 Q 11.56 77.733 11.56 77.633 Q 11.36 76.433 11.36 75.233 Q 11.36 74.033 11.16 72.833 L 10.91 73.083 Q 10.76 73.233 10.76 73.433 Q 9.86 75.633 10.31 77.833 Q 10.76 80.033 9.96 82.333 Q 9.86 82.833 9.76 83.383 Q 9.66 83.933 9.56 84.433 Q 9.56 84.733 9.36 85.333 Q 9.46 86.633 9.26 87.583 Q 9.06 88.533 8.26 88.833 Q 7.16 89.233 6.96 87.733 Q 6.76 86.233 7.06 83.833 Q 7.36 81.433 7.66 79.133 Q 7.96 76.833 7.86 75.733 L 7.46 75.733 Q 7.36 75.733 7.31 75.683 Q 7.26 75.633 7.06 75.633 Q 6.46 75.333 5.96 74.833 Q 5.36 74.433 5.16 74.133 Q 4.76 73.733 4.76 73.833 Q 4.66 74.833 4.86 76.433 Q 5.06 78.033 5.21 79.483 Q 5.36 80.933 5.26 81.733 Q 5.16 82.533 4.36 81.833 Q 3.36 80.833 3.41 79.333 Q 3.46 77.833 3.81 76.183 Q 4.16 74.533 3.96 73.033 Q 3.96 72.933 3.76 72.733 Q 3.56 72.533 3.56 72.733 Q 3.36 73.733 3.46 74.833 Q 3.56 75.933 3.16 77.033 Q 3.06 77.433 2.96 76.533 Q 2.86 75.633 2.76 75.133 Q 2.76 74.933 2.61 74.033 Q 2.46 73.133 2.41 72.183 Q 2.36 71.233 2.26 71.133 Q 2.16 71.133 2.11 71.083 Q 2.06 71.033 1.86 71.033 Q 1.06 70.733 0.56 70.033 Q 0.36 69.833 0.16 69.233 Q -0.04 68.433 0.01 67.583 Q 0.06 66.733 0.06 66.033 L 0.06 54.333 Q 0.06 53.833 0.11 53.283 Q 0.16 52.733 0.36 52.333 Q 0.66 51.533 1.21 50.883 Q 1.76 50.233 2.36 49.633 L 4.01 47.983 Q 4.86 47.133 5.66 46.233 Q 7.16 44.733 9.41 42.333 Q 11.66 39.933 13.96 37.533 Q 16.26 35.133 17.76 33.633 L 20.96 30.333 Q 22.46 28.733 23.91 27.233 Q 25.36 25.733 26.96 24.133 L 27.86 23.233 Q 27.96 23.033 28.06 22.933 L 28.26 22.733 L 28.76 22.333 Q 28.76 22.233 29.26 21.733 Q 29.16 21.833 29.36 21.633 Q 29.56 21.433 29.66 21.233 Q 29.76 21.033 29.16 21.433 Q 28.86 21.433 28.61 21.483 Q 28.36 21.533 28.06 21.533 Q 27.66 21.633 26.76 21.633 L 26.26 21.633 Q 25.56 21.733 24.81 21.783 Q 24.06 21.833 23.26 21.833 Q 22.86 21.933 22.41 22.133 Q 21.96 22.333 21.56 22.433 Q 20.06 22.933 18.56 23.283 Q 17.06 23.633 15.46 23.833 Q 14.56 23.933 13.66 23.833 Q 13.56 23.833 13.31 23.733 Q 13.06 23.633 12.86 23.733 Q 12.76 23.833 12.71 24.083 Q 12.66 24.333 12.46 24.233 Q 12.36 24.133 12.31 23.883 Q 12.26 23.633 12.06 23.533 L 11.66 23.333 L 11.56 23.233 L 11.36 23.133 L 11.26 23.133 Q 11.16 23.833 11.16 24.533 L 11.16 25.933 Q 11.06 26.433 11.11 27.033 Q 11.16 27.633 11.06 28.133 L 11.06 28.783 Q 11.06 29.333 10.86 29.333 Q 10.86 29.433 10.76 29.283 L 10.66 29.133 Q 10.56 29.033 10.56 28.933 Q 10.56 28.833 10.46 28.733 L 10.46 28.683 Q 10.46 28.633 10.36 28.633 Q 10.26 28.133 9.86 27.833 Q 9.76 27.633 9.46 27.333 Q 9.26 27.033 9.01 26.733 Q 8.76 26.433 8.56 26.233 L 7.86 25.633 L 7.56 25.633 Q 7.16 25.433 7.11 25.283 Q 7.06 25.133 6.76 24.933 Q 6.66 24.933 6.61 24.883 Q 6.56 24.833 6.46 24.833 Q 6.06 24.633 5.51 24.533 Q 4.96 24.433 4.56 24.033 Q 4.26 23.733 3.96 23.383 Q 3.66 23.033 3.26 22.633 Q 3.06 22.333 2.86 21.983 Q 2.66 21.633 2.46 21.333 L 2.26 21.133 Q 2.16 20.933 2.06 20.833 L 1.86 20.633 L 1.56 20.333 Q 1.46 20.233 1.46 20.183 Q 1.46 20.133 1.36 20.033 Q 1.36 19.933 1.26 19.833 Q 1.26 19.733 1.21 19.683 Q 1.16 19.633 1.16 19.533 Q 1.06 19.133 1.01 18.733 Q 0.96 18.333 0.96 17.933 Q 0.96 17.333 1.01 16.733 Q 1.06 16.133 1.06 15.633 L 1.06 5.633 Q 0.96 4.633 1.06 3.733 Q 1.16 2.633 1.91 1.883 Q 2.66 1.133 3.76 1.133 L 54.56 1.133 Q 55.26 1.133 56.01 1.083 Q 56.76 1.033 57.46 1.033 Q 57.86 1.033 58.41 1.083 Q 58.96 1.133 59.06 1.133 Q 60.96 1.433 61.26 3.433 Q 61.36 4.233 61.31 5.183 Q 61.26 6.133 61.26 7.033 L 61.26 14.133 Q 61.26 15.433 61.36 17.033 Q 61.46 18.633 60.86 20.033 Q 60.66 20.633 60.26 21.083 Q 59.86 21.533 59.36 22.033 L 58.46 23.033 L 56.16 25.533 Q 55.96 25.733 55.71 26.033 Q 55.46 26.333 55.26 26.533 L 47.66 34.933 Q 46.06 36.733 44.56 38.433 Q 43.06 40.133 41.86 41.333 L 39.56 43.933 Q 39.06 44.433 38.56 44.983 Q 38.06 45.533 37.56 46.133 L 35.66 48.233 L 35.16 48.733 L 33.76 50.333 Q 33.56 50.333 33.46 50.533 Q 33.36 50.733 33.86 50.633 L 55.46 50.633 Q 56.86 50.633 58.56 50.483 Q 60.26 50.333 61.46 51.133 L 61.51 51.133 Q 61.56 51.133 61.56 51.233 Q 61.86 51.433 62.06 51.733 Q 62.26 51.933 62.46 52.533 Q 62.76 53.433 62.66 54.533 Q 62.56 55.633 62.56 56.533 Z M 329.06 59.233 L 328.36 60.133 Q 327.66 61.133 326.96 61.883 Q 326.26 62.633 325.76 63.133 L 325.06 63.833 Q 324.86 63.933 324.61 64.133 Q 324.36 64.333 324.16 64.533 Q 323.96 64.933 323.81 65.283 Q 323.66 65.633 323.46 66.033 Q 322.96 67.233 322.16 68.133 Q 322.06 68.233 322.01 68.433 Q 321.96 68.633 321.86 68.533 Q 321.76 68.433 321.76 68.233 L 321.16 69.133 Q 321.06 69.333 320.86 69.533 L 320.81 69.583 Q 320.76 69.633 320.66 69.633 Q 320.56 69.633 320.56 69.683 Q 320.56 69.733 320.46 69.733 Q 320.36 70.833 320.36 73.133 Q 320.36 75.433 320.31 78.133 Q 320.26 80.833 320.21 83.133 Q 320.16 85.433 320.06 86.533 Q 320.06 86.633 319.86 86.733 Q 319.66 86.833 319.66 86.733 Q 319.56 85.633 319.51 83.233 Q 319.46 80.833 319.46 78.083 Q 319.46 75.333 319.41 72.983 Q 319.36 70.633 319.26 69.433 Q 319.06 69.233 318.86 69.133 L 318.66 68.933 L 318.61 68.883 Q 318.56 68.833 318.56 68.733 Q 318.46 68.733 318.46 68.683 Q 318.46 68.633 318.36 68.633 L 318.26 68.733 Q 318.16 69.033 318.16 69.333 Q 318.16 69.633 317.96 70.133 Q 317.86 70.533 317.61 70.833 Q 317.36 71.133 317.06 71.533 Q 317.06 71.633 316.86 72.033 Q 316.66 72.233 316.56 72.233 Q 316.46 72.233 316.46 72.283 L 316.46 72.333 Q 315.56 73.933 314.96 75.933 L 314.26 78.233 Q 314.16 78.533 314.01 79.083 Q 313.86 79.633 313.86 79.333 Q 313.66 77.733 313.71 76.133 Q 313.76 74.533 313.56 72.933 Q 313.56 73.033 313.51 73.033 Q 313.46 73.033 313.46 73.133 Q 313.26 73.833 312.96 74.483 Q 312.66 75.133 312.36 75.833 Q 311.86 76.933 311.16 78.033 Q 310.46 79.133 309.56 80.033 L 309.21 80.383 Q 308.96 80.633 308.66 80.833 Q 308.26 81.233 307.91 81.683 Q 307.56 82.133 306.76 81.933 Q 306.16 81.633 305.66 81.133 Q 305.26 80.833 304.81 80.333 Q 304.36 79.833 303.96 79.433 Q 303.16 78.433 302.51 77.283 Q 301.86 76.133 301.16 74.933 Q 300.96 74.533 300.66 73.983 Q 300.36 73.433 300.06 73.033 L 299.76 72.733 Q 299.76 72.633 299.56 72.633 L 299.16 72.333 Q 298.96 72.433 298.96 72.783 Q 298.96 73.133 298.76 73.333 Q 298.56 73.733 298.46 73.733 Q 298.36 73.633 298.31 73.433 Q 298.26 73.233 298.16 73.133 L 297.86 72.133 L 297.76 72.133 Q 286.96 71.933 279.91 68.783 Q 272.86 65.633 269.36 60.933 Q 268.66 60.033 268.16 59.133 Q 267.66 58.333 267.36 57.533 L 266.96 56.533 Q 266.66 55.733 266.46 54.883 Q 266.26 54.033 266.06 53.233 Q 265.96 52.433 265.81 51.583 Q 265.66 50.733 266.06 49.933 Q 266.06 49.833 266.11 49.783 L 266.16 49.733 Q 266.36 49.333 266.96 48.933 Q 267.36 48.733 267.76 48.683 Q 268.16 48.633 268.46 48.633 Q 269.86 48.533 271.26 48.583 Q 272.66 48.633 273.96 48.633 L 283.46 48.633 Q 283.96 48.633 284.81 48.583 Q 285.66 48.533 286.36 48.533 Q 286.96 48.533 287.51 48.583 Q 288.06 48.633 288.46 48.733 Q 289.26 48.833 289.81 49.183 Q 290.36 49.533 290.96 50.033 L 292.46 51.033 Q 293.16 51.433 293.86 51.733 Q 294.56 52.033 295.26 52.233 Q 296.56 52.633 298.76 52.633 Q 299.96 52.633 301.06 52.533 Q 302.16 52.433 303.06 52.233 L 304.06 51.933 Q 304.26 51.833 304.41 51.833 Q 304.56 51.833 304.66 51.733 Q 306.26 50.933 306.26 49.833 L 306.26 49.733 Q 306.26 49.133 305.76 48.433 L 305.16 47.833 L 305.06 47.833 Q 304.66 47.633 303.96 47.783 Q 303.26 47.933 302.76 48.033 Q 302.36 48.033 301.91 48.083 Q 301.46 48.133 300.96 48.133 Q 300.76 48.133 300.56 48.033 Q 300.36 47.933 300.16 47.933 Q 299.86 48.033 299.61 48.133 Q 299.36 48.233 299.16 48.333 Q 298.66 48.533 298.06 48.733 Q 297.46 48.933 296.86 49.233 Q 295.96 49.633 295.01 49.883 Q 294.06 50.133 293.06 49.733 Q 292.46 49.533 291.96 49.233 L 290.96 48.633 Q 289.96 48.133 289.11 47.533 Q 288.26 46.933 287.46 46.233 L 285.16 43.933 L 284.36 43.333 L 283.66 43.333 L 283.41 43.583 L 283.06 43.933 L 282.16 44.833 Q 281.66 45.333 281.16 45.733 Q 280.96 45.833 280.61 46.033 Q 280.26 46.233 279.96 46.133 Q 279.56 45.933 279.26 45.533 Q 278.96 45.133 278.76 44.733 Q 278.46 43.933 278.31 43.033 Q 278.16 42.133 277.76 41.433 Q 277.36 41.133 276.91 40.733 Q 276.46 40.333 276.06 39.933 Q 275.96 39.833 275.91 39.733 Q 275.86 39.633 275.66 39.533 Q 274.96 38.833 274.91 38.833 Q 274.86 38.833 274.46 38.633 Q 274.26 38.433 274.26 38.233 Q 273.36 37.433 272.56 36.533 Q 272.26 36.133 271.91 35.783 Q 271.56 35.433 271.36 35.033 Q 270.96 34.633 270.66 34.133 Q 270.36 33.633 270.06 33.233 Q 269.86 32.833 269.66 32.483 Q 269.46 32.133 269.26 31.733 Q 268.36 30.233 267.91 27.533 Q 267.46 24.833 267.56 22.183 Q 267.66 19.533 268.16 18.033 L 268.56 16.833 L 268.96 15.633 Q 269.16 15.033 269.36 14.733 Q 269.56 14.133 269.76 13.833 Q 272.96 7.633 280.06 3.983 Q 287.16 0.333 297.26 0.133 L 298.06 0.133 Q 306.36 0.133 312.51 2.483 Q 318.66 4.833 322.66 8.483 Q 326.66 12.133 328.36 16.033 Q 328.56 16.633 328.81 17.233 Q 329.06 17.833 329.16 18.433 Q 329.36 19.033 329.51 19.733 Q 329.66 20.433 329.46 21.133 Q 329.26 22.033 328.66 22.533 Q 328.26 22.933 327.96 23.033 L 327.76 23.233 Q 327.66 23.233 327.56 23.133 Q 327.46 23.233 327.36 23.183 Q 327.26 23.133 327.06 23.233 Q 326.86 23.233 326.61 23.383 Q 326.36 23.533 326.16 23.633 Q 325.46 23.933 324.81 24.333 Q 324.16 24.733 323.36 24.833 Q 322.56 24.833 321.76 24.583 Q 320.96 24.333 320.16 24.333 Q 319.56 24.333 318.96 24.583 Q 318.36 24.833 317.76 24.733 Q 317.36 24.633 316.96 24.383 Q 316.56 24.134 316.161 23.934 L 315.56 23.733 Q 315.26 23.633 314.96 23.633 L 314.16 23.833 L 312.16 24.233 Q 311.16 24.433 310.06 24.533 Q 309.66 24.633 309.31 24.833 Q 308.96 25.033 308.56 25.133 Q 307.96 25.333 307.31 25.433 Q 306.66 25.533 305.96 25.333 Q 305.06 24.933 304.51 24.083 Q 303.96 23.233 303.36 22.533 Q 303.16 22.233 302.86 21.933 L 302.26 21.333 Q 302.16 21.433 301.96 21.433 Q 300.26 21.933 298.86 21.033 Q 298.56 20.833 298.26 20.583 Q 297.96 20.333 297.56 20.233 Q 297.56 20.133 297.16 19.933 Q 296.76 20.033 296.36 20.183 Q 295.96 20.333 295.56 20.533 Q 295.46 20.533 295.31 20.583 Q 295.16 20.633 294.96 20.633 L 294.36 20.633 Q 293.96 20.633 293.91 20.733 Q 293.86 20.833 293.66 21.033 Q 293.66 21.133 293.61 21.133 Q 293.56 21.133 293.56 21.233 Q 293.36 21.633 293.36 21.833 Q 293.26 22.033 293.26 22.433 Q 293.26 23.833 294.86 24.533 Q 295.06 24.733 295.66 24.933 Q 296.56 25.333 297.56 25.533 Q 299.46 26.033 301.86 26.433 L 304.36 26.733 Q 304.56 26.733 304.81 26.783 Q 305.06 26.833 305.16 26.833 L 307.06 27.133 L 307.66 27.133 Q 307.76 27.233 307.86 27.233 Q 308.16 27.233 308.51 27.283 Q 308.86 27.333 309.26 27.433 Q 324.86 30.233 329.46 38.033 Q 329.56 38.033 329.56 38.083 L 329.56 38.133 Q 330.16 38.833 330.46 40.033 Q 330.56 40.233 330.66 40.483 Q 330.76 40.733 330.86 40.933 L 331.46 42.733 Q 331.46 42.833 331.51 42.983 Q 331.56 43.133 331.56 43.233 Q 331.86 44.133 331.86 45.033 Q 331.96 45.633 331.96 46.183 L 331.96 47.233 L 331.96 48.533 Q 331.96 52.133 330.76 55.433 Q 330.06 57.933 329.06 59.233 Z M 130.36 42.433 L 130.36 65.233 Q 130.36 65.833 130.41 66.483 Q 130.46 67.133 130.46 67.833 L 130.46 68.583 Q 130.46 68.933 130.26 69.333 Q 130.26 69.433 130.21 69.483 L 130.16 69.533 Q 130.06 69.733 129.86 69.933 Q 129.46 70.633 128.86 70.933 L 128.76 71.033 Q 128.56 71.533 128.46 72.133 Q 128.36 72.733 128.06 73.233 Q 127.86 73.433 127.66 73.233 Q 127.56 72.933 127.51 72.583 Q 127.46 72.233 127.26 71.833 Q 127.16 71.933 127.06 72.083 Q 126.96 72.233 126.86 72.233 Q 126.76 72.233 126.66 72.383 Q 126.56 72.533 126.66 72.433 Q 126.16 73.233 125.66 74.333 Q 124.76 76.333 124.46 77.733 Q 124.16 79.133 123.06 81.733 Q 122.96 82.233 122.71 82.533 Q 122.46 82.833 122.06 83.233 L 122.01 83.283 Q 121.96 83.333 121.86 83.333 L 121.81 83.383 Q 121.76 83.433 121.66 83.433 Q 120.56 84.533 120.66 85.333 Q 120.76 86.133 121.26 86.833 Q 121.76 87.533 121.86 88.333 Q 121.96 89.133 120.86 90.233 Q 120.76 90.633 120.61 91.333 Q 120.46 92.033 120.36 91.633 Q 119.26 90.533 119.36 90.233 Q 119.46 89.933 120.01 89.833 Q 120.56 89.733 120.66 89.433 Q 120.76 89.133 119.66 88.033 Q 119.26 86.833 119.41 85.583 Q 119.56 84.333 119.36 83.133 Q 118.96 82.633 118.56 82.083 Q 118.16 81.533 117.56 81.233 Q 117.26 81.333 117.26 81.533 Q 117.16 82.333 117.11 83.233 Q 117.06 84.133 116.86 84.933 Q 116.76 85.333 116.46 85.983 Q 116.16 86.633 115.66 85.933 Q 114.96 84.833 114.76 83.733 Q 114.56 82.633 114.16 81.533 Q 113.86 81.333 113.66 80.883 Q 113.46 80.433 113.26 80.133 L 112.86 79.433 Q 112.46 78.433 112.36 78.333 Q 112.26 78.233 111.96 77.833 Q 111.26 76.733 110.36 75.933 Q 109.96 75.633 109.66 75.233 Q 108.96 74.433 108.36 73.483 Q 107.76 72.533 107.16 71.633 Q 106.76 71.133 106.21 70.533 Q 105.66 69.933 105.46 69.233 Q 105.36 68.933 105.36 68.133 L 105.36 40.633 Q 105.26 40.433 105.26 40.033 Q 105.26 40.133 105.21 39.783 Q 105.16 39.433 105.16 39.533 Q 105.06 39.033 104.86 38.633 Q 104.66 38.233 104.36 37.833 Q 104.26 37.633 103.86 37.233 L 103.56 36.933 Q 103.36 37.033 103.16 37.633 Q 102.96 38.033 102.71 38.483 Q 102.46 38.933 102.16 39.333 Q 101.86 39.533 101.66 39.433 Q 101.46 39.333 101.16 39.233 Q 100.76 38.433 100.81 38.733 Q 100.86 39.033 100.76 39.133 L 100.76 39.333 Q 100.66 39.733 100.66 40.133 L 100.66 41.033 Q 100.56 42.633 100.56 44.283 L 100.56 47.633 Q 100.46 48.633 100.51 49.683 Q 100.56 50.733 100.36 51.733 Q 100.36 52.133 100.06 52.433 Q 99.96 52.533 99.91 52.733 Q 99.86 52.933 99.66 53.133 L 99.61 53.183 Q 99.56 53.233 99.46 53.233 Q 99.26 53.233 99.06 52.933 Q 98.86 52.633 98.66 51.833 Q 98.66 51.633 98.56 51.433 L 98.26 49.933 Q 97.86 48.533 97.86 46.333 L 97.86 42.133 Q 97.86 41.933 97.81 41.183 Q 97.76 40.433 97.76 39.733 Q 97.76 39.433 97.71 39.083 Q 97.66 38.733 97.66 38.433 Q 97.56 38.233 97.51 38.033 Q 97.46 37.833 97.26 37.633 Q 97.16 37.533 97.11 37.383 Q 97.06 37.233 96.86 37.133 Q 96.86 37.233 96.76 37.383 Q 96.66 37.533 96.66 37.433 L 96.26 37.833 Q 95.86 38.433 95.56 39.433 Q 95.46 39.833 95.36 40.283 Q 95.26 40.733 95.26 41.533 L 95.26 66.433 Q 95.26 67.933 95.36 68.233 Q 95.46 68.533 94.96 69.633 Q 94.96 69.833 94.76 70.033 Q 94.56 70.233 94.56 70.333 Q 94.36 70.433 94.16 70.583 Q 93.96 70.733 93.76 70.833 Q 93.56 71.033 93.46 71.183 Q 93.36 71.333 93.16 71.533 Q 92.56 72.733 92.36 74.033 Q 92.16 75.333 91.46 76.533 Q 91.06 77.333 90.66 77.083 Q 90.26 76.833 89.96 76.133 Q 89.66 75.433 89.46 75.133 Q 89.26 74.733 89.06 74.633 Q 88.96 74.533 88.76 74.733 Q 88.56 74.833 88.36 74.983 Q 88.16 75.133 87.96 75.333 L 87.76 75.533 Q 87.16 76.233 86.66 77.233 Q 86.16 78.233 85.36 78.933 Q 84.96 79.233 84.61 79.383 Q 84.26 79.533 83.76 79.133 L 83.56 78.733 Q 83.46 78.733 83.46 78.683 Q 83.46 78.633 83.36 78.633 L 82.06 78.633 Q 81.76 78.833 81.51 79.133 Q 81.26 79.433 80.96 79.733 Q 80.76 80.133 80.56 80.333 L 80.26 80.633 Q 80.06 80.833 79.86 80.833 Q 79.76 81.233 79.71 81.583 Q 79.66 81.933 79.46 82.333 Q 79.06 82.733 79.06 82.633 Q 78.86 82.133 78.86 81.583 Q 78.86 81.033 78.66 80.533 L 78.36 80.233 Q 78.16 80.033 78.01 79.733 Q 77.86 79.433 77.66 79.133 Q 77.26 78.333 76.81 77.533 Q 76.36 76.733 75.96 76.033 Q 74.56 73.733 73.06 71.133 L 72.16 71.033 Q 71.56 70.733 71.26 70.433 Q 70.56 69.833 70.36 68.733 Q 70.16 67.633 70.26 66.483 Q 70.36 65.333 70.36 64.333 L 70.36 5.233 Q 70.36 4.233 70.31 3.133 Q 70.26 2.033 70.86 1.233 Q 70.96 1.033 71.11 0.933 Q 71.26 0.833 71.36 0.733 Q 71.66 0.533 72.06 0.333 Q 72.46 0.133 72.86 0.133 Q 73.66 -0.067 74.61 0.033 Q 75.56 0.133 76.26 0.133 L 87.76 0.133 Q 89.06 0.133 90.41 0.033 Q 91.76 -0.067 93.06 0.133 Q 94.06 0.233 94.56 0.933 Q 94.66 1.133 94.86 1.333 Q 95.06 1.733 95.16 2.083 Q 95.26 2.433 95.26 2.833 L 95.26 22.733 Q 95.26 23.433 95.21 23.533 Q 95.16 23.633 95.56 24.033 L 95.56 23.933 Q 95.66 23.933 95.66 23.883 Q 95.66 23.833 95.76 23.833 L 96.16 23.433 L 96.56 23.033 Q 96.76 22.833 97.01 22.633 Q 97.26 22.433 97.46 22.333 Q 97.66 22.133 97.76 22.083 Q 97.86 22.033 97.96 21.933 Q 98.66 21.433 99.36 21.033 L 100.76 20.233 Q 100.96 20.133 101.21 20.033 Q 101.46 19.933 101.66 19.833 Q 102.56 19.033 104.66 18.733 Q 104.86 18.633 105.11 18.633 Q 105.36 18.633 105.66 18.533 L 106.36 18.533 Q 107.36 18.333 108.41 18.233 Q 109.46 18.133 110.46 18.133 Q 115.76 18.133 120.06 20.533 Q 120.16 20.533 120.56 20.733 Q 121.56 21.233 122.06 21.733 Q 124.26 23.333 126.01 25.633 Q 127.76 27.933 128.86 31.033 Q 129.26 31.733 129.51 32.883 Q 129.76 34.033 129.96 35.333 Q 129.96 35.633 130.01 35.983 Q 130.06 36.333 130.16 36.733 Q 130.36 38.133 130.36 39.583 L 130.36 42.433 Z M 464.36 42.433 L 464.36 65.233 Q 464.36 65.833 464.41 66.483 Q 464.46 67.133 464.46 67.833 L 464.46 68.583 Q 464.46 68.933 464.26 69.333 Q 464.26 69.433 464.21 69.483 L 464.16 69.533 Q 464.06 69.733 463.86 69.933 Q 463.46 70.633 462.86 70.933 L 462.76 71.033 Q 462.56 71.533 462.46 72.133 Q 462.36 72.733 462.06 73.233 Q 461.86 73.433 461.66 73.233 Q 461.56 72.933 461.51 72.583 Q 461.46 72.233 461.26 71.833 Q 461.16 71.933 461.06 72.083 Q 460.96 72.233 460.86 72.233 Q 460.76 72.233 460.66 72.383 Q 460.56 72.533 460.66 72.433 Q 460.16 73.233 459.66 74.333 Q 458.76 76.333 458.46 77.733 Q 458.16 79.133 457.06 81.733 Q 456.96 82.233 456.71 82.533 Q 456.46 82.833 456.06 83.233 L 456.01 83.283 Q 455.96 83.333 455.86 83.333 L 455.81 83.383 Q 455.76 83.433 455.66 83.433 Q 454.56 84.533 454.66 85.333 Q 454.76 86.133 455.26 86.833 Q 455.76 87.533 455.86 88.333 Q 455.96 89.133 454.86 90.233 Q 454.76 90.633 454.61 91.333 Q 454.46 92.033 454.36 91.633 Q 453.26 90.533 453.36 90.233 Q 453.46 89.933 454.01 89.833 Q 454.56 89.733 454.66 89.433 Q 454.76 89.133 453.66 88.033 Q 453.26 86.833 453.41 85.583 Q 453.56 84.333 453.36 83.133 Q 452.96 82.633 452.56 82.083 Q 452.16 81.533 451.56 81.233 Q 451.26 81.333 451.26 81.533 Q 451.16 82.333 451.11 83.233 Q 451.06 84.133 450.86 84.933 Q 450.76 85.333 450.46 85.983 Q 450.16 86.633 449.66 85.933 Q 448.96 84.833 448.76 83.733 Q 448.56 82.633 448.16 81.533 Q 447.86 81.333 447.66 80.883 Q 447.46 80.433 447.26 80.133 L 446.86 79.433 Q 446.46 78.433 446.36 78.333 Q 446.26 78.233 445.96 77.833 Q 445.26 76.733 444.36 75.933 Q 443.96 75.633 443.66 75.233 Q 442.96 74.433 442.36 73.483 Q 441.76 72.533 441.16 71.633 Q 440.76 71.133 440.21 70.533 Q 439.66 69.933 439.46 69.233 Q 439.36 68.933 439.36 68.133 L 439.36 40.633 Q 439.26 40.433 439.26 40.033 Q 439.26 40.133 439.21 39.783 Q 439.16 39.433 439.16 39.533 Q 439.06 39.033 438.86 38.633 Q 438.66 38.233 438.36 37.833 Q 438.26 37.633 437.86 37.233 L 437.56 36.933 Q 437.36 37.033 437.16 37.633 Q 436.96 38.033 436.71 38.483 Q 436.46 38.933 436.16 39.333 Q 435.86 39.533 435.66 39.433 Q 435.46 39.333 435.16 39.233 Q 434.76 38.433 434.81 38.733 Q 434.86 39.033 434.76 39.133 L 434.76 39.333 Q 434.66 39.733 434.66 40.133 L 434.66 41.033 Q 434.56 42.633 434.56 44.283 L 434.56 47.633 Q 434.46 48.633 434.51 49.683 Q 434.56 50.733 434.36 51.733 Q 434.36 52.133 434.06 52.433 Q 433.96 52.533 433.91 52.733 Q 433.86 52.933 433.66 53.133 L 433.61 53.183 Q 433.56 53.233 433.46 53.233 Q 433.26 53.233 433.06 52.933 Q 432.86 52.633 432.66 51.833 Q 432.66 51.633 432.56 51.433 L 432.26 49.933 Q 431.86 48.533 431.86 46.333 L 431.86 42.133 Q 431.86 41.933 431.81 41.183 Q 431.76 40.433 431.76 39.733 Q 431.76 39.433 431.71 39.083 Q 431.66 38.733 431.66 38.433 Q 431.56 38.233 431.51 38.033 Q 431.46 37.833 431.26 37.633 Q 431.16 37.533 431.11 37.383 Q 431.06 37.233 430.86 37.133 Q 430.86 37.233 430.76 37.383 Q 430.66 37.533 430.66 37.433 L 430.26 37.833 Q 429.86 38.433 429.56 39.433 Q 429.46 39.833 429.36 40.283 Q 429.26 40.733 429.26 41.533 L 429.26 66.433 Q 429.26 67.933 429.36 68.233 Q 429.46 68.533 428.96 69.633 Q 428.96 69.833 428.76 70.033 Q 428.56 70.233 428.56 70.333 Q 428.36 70.433 428.16 70.583 Q 427.96 70.733 427.76 70.833 Q 427.56 71.033 427.46 71.183 Q 427.36 71.333 427.16 71.533 Q 426.56 72.733 426.36 74.033 Q 426.16 75.333 425.46 76.533 Q 425.06 77.333 424.66 77.083 Q 424.26 76.833 423.96 76.133 Q 423.66 75.433 423.46 75.133 Q 423.26 74.733 423.06 74.633 Q 422.96 74.533 422.76 74.733 Q 422.56 74.833 422.36 74.983 Q 422.16 75.133 421.96 75.333 L 421.76 75.533 Q 421.16 76.233 420.66 77.233 Q 420.16 78.233 419.36 78.933 Q 418.96 79.233 418.61 79.383 Q 418.26 79.533 417.76 79.133 L 417.56 78.733 Q 417.46 78.733 417.46 78.683 Q 417.46 78.633 417.36 78.633 L 416.06 78.633 Q 415.76 78.833 415.51 79.133 Q 415.26 79.433 414.96 79.733 Q 414.76 80.133 414.56 80.333 L 414.26 80.633 Q 414.06 80.833 413.86 80.833 Q 413.76 81.233 413.71 81.583 Q 413.66 81.933 413.46 82.333 Q 413.06 82.733 413.06 82.633 Q 412.86 82.133 412.86 81.583 Q 412.86 81.033 412.66 80.533 L 412.36 80.233 Q 412.16 80.033 412.01 79.733 Q 411.86 79.433 411.66 79.133 Q 411.26 78.333 410.81 77.533 Q 410.36 76.733 409.96 76.033 Q 408.56 73.733 407.06 71.133 L 406.16 71.033 Q 405.56 70.733 405.26 70.433 Q 404.56 69.833 404.36 68.733 Q 404.16 67.633 404.26 66.483 Q 404.36 65.333 404.36 64.333 L 404.36 5.233 Q 404.36 4.233 404.31 3.133 Q 404.26 2.033 404.86 1.233 Q 404.96 1.033 405.11 0.933 Q 405.26 0.833 405.36 0.733 Q 405.66 0.533 406.06 0.333 Q 406.46 0.133 406.86 0.133 Q 407.66 -0.067 408.61 0.033 Q 409.56 0.133 410.26 0.133 L 421.76 0.133 Q 423.06 0.133 424.41 0.033 Q 425.76 -0.067 427.06 0.133 Q 428.06 0.233 428.56 0.933 Q 428.66 1.133 428.86 1.333 Q 429.06 1.733 429.16 2.083 Q 429.26 2.433 429.26 2.833 L 429.26 22.733 Q 429.26 23.433 429.21 23.533 Q 429.16 23.633 429.56 24.033 L 429.56 23.933 Q 429.66 23.933 429.66 23.883 Q 429.66 23.833 429.76 23.833 L 430.16 23.433 L 430.56 23.033 Q 430.76 22.833 431.01 22.633 Q 431.26 22.433 431.46 22.333 Q 431.66 22.133 431.76 22.083 Q 431.86 22.033 431.96 21.933 Q 432.66 21.433 433.36 21.033 L 434.76 20.233 Q 434.96 20.133 435.21 20.033 Q 435.46 19.933 435.66 19.833 Q 436.56 19.033 438.66 18.733 Q 438.86 18.633 439.11 18.633 Q 439.36 18.633 439.66 18.533 L 440.36 18.533 Q 441.36 18.333 442.41 18.233 Q 443.46 18.133 444.46 18.133 Q 449.76 18.133 454.06 20.533 Q 454.16 20.533 454.56 20.733 Q 455.56 21.233 456.06 21.733 Q 458.26 23.333 460.01 25.633 Q 461.76 27.933 462.86 31.033 Q 463.26 31.733 463.51 32.883 Q 463.76 34.033 463.96 35.333 Q 463.96 35.633 464.01 35.983 Q 464.06 36.333 464.16 36.733 Q 464.36 38.133 464.36 39.583 L 464.36 42.433 Z M 260.06 41.133 L 260.06 62.433 Q 260.06 63.833 260.16 65.333 Q 260.26 66.833 260.06 68.233 Q 260.06 69.033 259.96 69.333 Q 259.66 70.133 258.96 70.633 L 258.91 70.683 Q 258.86 70.733 258.76 70.733 L 258.71 70.783 Q 258.66 70.833 258.56 70.833 Q 258.46 70.933 258.16 71.533 Q 257.86 72.133 257.66 72.133 Q 257.16 72.933 256.56 73.433 Q 256.46 73.533 256.36 73.583 Q 256.26 73.633 256.16 73.733 Q 255.76 75.533 255.61 77.383 Q 255.46 79.233 254.96 81.033 Q 254.76 81.833 254.56 82.133 Q 254.26 82.433 254.16 82.333 Q 254.06 82.333 253.76 81.833 Q 253.66 81.433 253.41 80.683 Q 253.16 79.933 253.06 79.533 Q 252.86 78.833 252.66 78.183 Q 252.46 77.533 252.16 76.833 Q 252.06 76.633 252.01 76.333 Q 251.96 76.033 251.76 75.933 L 251.56 75.833 Q 251.36 75.733 251.26 75.633 Q 251.16 75.433 251.01 75.333 Q 250.86 75.233 250.76 75.133 Q 250.26 74.433 250.36 74.483 L 250.46 74.533 L 249.76 73.833 Q 249.66 73.933 249.36 73.933 Q 249.06 73.933 248.96 74.033 Q 248.86 76.233 248.81 79.783 Q 248.76 83.333 248.56 85.633 Q 248.56 85.833 248.21 85.633 L 247.86 85.433 Q 247.46 85.033 247.16 84.483 Q 246.86 83.933 246.66 83.533 Q 246.56 83.233 246.41 82.983 Q 246.26 82.733 246.26 82.533 Q 246.06 80.233 246.06 77.833 Q 246.06 75.433 245.86 73.233 Q 245.66 73.033 245.56 73.033 Q 245.46 73.333 245.46 73.683 Q 245.46 74.033 245.26 74.333 Q 245.16 74.633 244.76 74.233 Q 244.26 74.033 243.81 73.783 Q 243.36 73.533 242.86 73.333 Q 242.46 73.133 241.91 72.983 Q 241.36 72.833 241.06 72.533 Q 240.66 73.333 239.81 73.533 Q 238.96 73.733 238.26 73.133 Q 237.66 72.633 237.31 71.933 Q 236.96 71.233 236.36 70.333 Q 236.16 70.133 235.96 69.883 Q 235.76 69.633 235.66 69.233 Q 235.56 68.833 235.56 67.933 L 235.56 41.533 Q 235.56 40.833 235.46 40.433 Q 235.26 38.733 234.26 37.533 Q 234.16 37.333 234.01 37.183 Q 233.86 37.033 233.66 36.933 Q 233.56 36.833 233.36 36.833 Q 233.16 37.133 233.11 37.483 Q 233.06 37.833 232.86 38.133 Q 232.36 38.633 232.26 38.333 Q 232.06 37.933 232.06 37.833 Q 231.76 38.133 231.36 38.733 Q 231.16 39.333 230.96 39.533 Q 230.86 39.733 230.76 40.133 Q 230.66 40.533 230.56 40.333 Q 230.36 39.733 230.31 39.133 Q 230.26 38.533 230.16 37.833 Q 230.16 38.033 230.06 38.033 Q 230.06 38.233 229.96 38.233 Q 229.86 38.533 229.61 39.033 Q 229.36 39.533 228.96 39.733 Q 228.76 40.533 229.06 41.883 Q 229.36 43.233 228.56 43.033 Q 227.66 42.833 228.01 41.583 Q 228.36 40.333 228.16 39.333 Q 228.06 39.233 228.06 38.833 L 228.06 38.333 L 228.06 37.683 Q 228.06 37.333 227.76 37.233 L 227.51 37.183 Q 227.26 37.133 227.16 37.133 Q 225.96 38.233 225.66 40.233 Q 225.56 40.733 225.56 41.283 L 225.56 42.333 L 225.56 66.333 Q 225.56 67.033 225.61 67.833 Q 225.66 68.633 225.46 69.333 Q 225.36 69.633 225.16 69.933 Q 224.96 70.233 224.76 70.433 Q 224.66 70.433 224.66 70.483 Q 224.66 70.533 224.56 70.533 L 224.36 70.733 Q 224.26 71.033 224.21 71.333 Q 224.16 71.633 223.96 71.933 Q 223.96 72.033 223.86 72.083 Q 223.76 72.133 223.66 72.033 Q 223.56 71.933 223.51 71.683 Q 223.46 71.433 223.36 71.333 Q 223.16 71.533 222.96 71.633 Q 222.86 71.833 222.91 72.133 Q 222.96 72.433 222.86 72.633 Q 222.66 73.233 222.46 73.433 Q 222.36 73.533 222.06 73.333 Q 221.86 72.833 222.06 72.983 Q 222.26 73.133 221.66 72.533 Q 221.56 72.433 221.56 72.333 Q 221.26 72.533 221.06 72.783 Q 220.86 73.033 220.56 73.233 Q 220.46 73.333 220.36 73.483 Q 220.26 73.633 219.76 73.833 L 219.66 73.833 Q 219.36 73.933 218.76 73.933 Q 218.36 73.933 218.01 73.783 Q 217.66 73.633 217.26 73.533 Q 216.76 73.233 216.21 72.833 Q 215.66 72.433 215.36 72.233 Q 214.66 71.833 214.76 71.833 L 214.56 71.733 Q 214.36 71.833 214.16 71.683 Q 213.96 71.533 213.76 71.533 Q 213.66 71.633 213.51 71.833 Q 213.36 72.033 213.16 72.233 L 212.96 72.433 Q 212.86 72.533 212.66 72.633 Q 212.56 72.633 212.56 72.683 L 212.56 72.733 Q 212.46 72.733 212.46 72.833 Q 212.36 72.833 212.31 72.883 L 212.26 72.933 Q 212.16 73.033 212.06 73.583 Q 211.96 74.133 211.46 74.133 Q 211.36 74.133 211.01 73.883 Q 210.66 73.633 210.56 73.633 Q 210.36 73.433 210.26 73.433 Q 209.86 73.233 209.51 72.933 Q 209.16 72.633 208.96 72.333 Q 208.96 72.233 208.91 72.233 Q 208.86 72.233 208.86 72.133 Q 208.76 72.533 208.76 72.933 Q 208.76 73.333 208.56 73.733 Q 208.56 73.833 208.46 73.783 Q 208.36 73.733 208.26 73.833 Q 207.86 73.833 207.86 73.933 Q 207.76 73.533 207.71 73.133 Q 207.66 72.733 207.56 72.333 Q 207.46 72.533 207.06 72.933 Q 206.96 73.033 206.86 73.083 Q 206.76 73.133 206.66 73.233 Q 206.56 73.933 206.51 74.583 Q 206.46 75.233 206.26 76.033 Q 206.16 76.233 206.11 76.683 Q 206.06 77.133 205.86 77.033 Q 205.46 76.833 205.51 76.383 Q 205.56 75.933 205.46 75.633 Q 205.36 74.833 205.36 74.183 Q 205.36 73.533 205.16 72.833 Q 204.96 72.633 204.71 72.333 Q 204.46 72.033 204.26 71.733 Q 204.06 71.533 203.96 71.333 Q 203.56 71.133 203.36 71.133 Q 203.26 71.133 203.21 71.083 Q 203.16 71.033 202.96 71.033 Q 202.16 70.733 201.66 70.033 Q 201.46 69.833 201.26 69.233 Q 201.06 68.533 201.11 67.633 Q 201.16 66.733 201.16 66.033 L 201.16 22.733 Q 201.06 22.433 201.11 22.183 Q 201.16 21.933 201.16 21.633 Q 201.26 20.533 202.06 19.833 Q 202.86 19.133 203.96 19.133 Q 204.76 19.033 205.61 19.083 Q 206.46 19.133 207.16 19.133 L 217.76 19.133 Q 218.26 19.133 219.36 19.083 Q 220.46 19.033 221.36 19.133 Q 221.96 19.133 222.76 19.533 Q 223.66 20.033 223.96 21.033 Q 224.16 21.633 224.11 22.333 Q 224.06 23.033 224.06 23.633 L 224.26 24.833 L 224.86 24.233 Q 225.46 23.633 226.16 23.083 Q 226.86 22.533 227.56 22.033 L 228.46 21.433 L 228.56 21.433 Q 229.56 20.733 230.56 20.333 Q 231.16 19.733 232.66 19.433 Q 232.86 19.333 233.16 19.333 Q 236.66 18.133 240.66 18.133 Q 245.26 18.133 249.36 20.083 Q 253.46 22.033 256.31 26.183 Q 259.16 30.333 259.86 36.833 Q 259.96 37.233 259.96 37.583 L 259.96 38.333 Q 260.06 39.033 260.06 39.733 L 260.06 41.133 Z M 396.76 46.233 L 396.76 46.733 L 396.76 48.033 Q 396.76 48.633 396.66 49.133 Q 396.56 50.433 396.46 51.683 Q 396.36 52.933 396.16 54.133 Q 395.96 55.633 395.61 57.133 Q 395.26 58.633 394.56 60.033 L 393.76 61.533 Q 392.76 63.633 391.06 65.533 Q 390.96 65.733 390.56 66.133 Q 390.16 66.633 389.56 67.083 Q 388.96 67.533 388.46 68.033 Q 387.86 68.733 387.31 69.283 Q 386.76 69.833 386.26 70.533 L 386.21 70.583 Q 386.16 70.633 386.06 70.633 L 385.16 72.133 Q 383.96 73.633 382.96 76.083 Q 381.96 78.533 381.06 81.033 Q 380.16 83.533 379.06 85.033 Q 378.96 85.133 378.91 85.383 Q 378.86 85.633 378.66 85.833 L 378.66 85.883 Q 378.66 85.933 378.56 85.933 Q 378.56 86.033 378.36 86.433 Q 378.06 86.933 377.81 87.433 Q 377.56 87.933 377.06 88.433 Q 376.96 88.733 376.66 88.833 L 376.36 89.133 Q 376.16 91.333 376.11 94.583 Q 376.06 97.833 375.86 100.133 Q 375.86 100.233 375.61 100.383 Q 375.36 100.533 375.36 100.433 Q 375.06 98.133 375.06 94.683 Q 375.06 91.233 374.86 89.033 Q 374.56 88.833 374.56 88.633 Q 374.46 88.533 374.46 88.183 L 374.46 87.733 Q 374.46 87.433 374.56 87.233 Q 374.46 87.433 373.96 87.633 Q 373.86 87.633 373.81 87.583 Q 373.76 87.533 373.66 87.533 Q 373.46 87.433 373.26 87.233 Q 373.36 88.533 373.51 89.733 Q 373.66 90.933 372.86 90.533 Q 371.86 90.033 372.26 88.533 Q 372.66 87.033 372.46 85.833 Q 372.36 85.833 372.21 85.733 Q 372.06 85.633 372.16 85.633 Q 372.16 85.533 372.11 85.483 L 372.06 85.433 Q 372.16 86.433 372.21 87.283 Q 372.26 88.133 371.66 87.833 Q 371.36 87.633 371.16 87.333 Q 371.36 88.633 371.11 89.283 Q 370.86 89.933 370.06 89.433 Q 368.86 88.533 368.91 86.983 Q 368.96 85.433 369.41 83.633 Q 369.86 81.833 369.76 80.333 Q 369.56 80.133 369.36 79.733 Q 369.26 79.633 369.26 79.533 Q 369.06 78.933 369.06 78.333 Q 369.06 77.233 369.36 76.333 Q 369.56 75.433 369.66 74.583 Q 369.76 73.733 369.66 73.033 Q 369.46 72.833 369.26 72.733 Q 369.16 72.733 369.06 72.533 L 368.86 72.533 L 368.86 73.633 Q 368.86 73.833 368.91 74.133 Q 368.96 74.433 368.96 74.733 Q 369.06 75.133 369.11 75.583 Q 369.16 76.033 369.16 76.833 Q 369.06 77.433 368.81 77.233 Q 368.56 77.033 368.26 76.833 Q 368.16 76.833 368.16 76.783 L 368.16 76.733 Q 367.76 76.133 367.86 75.283 Q 367.96 74.433 368.06 73.733 Q 368.16 73.233 368.21 72.783 Q 368.26 72.333 368.16 71.933 Q 368.16 71.833 368.11 71.833 Q 368.06 71.833 368.06 71.733 L 367.36 71.433 L 367.26 71.333 Q 367.16 71.333 367.16 71.283 Q 367.16 71.233 367.06 71.233 Q 366.46 70.833 366.06 70.233 Q 365.76 70.033 365.46 69.783 Q 365.16 69.533 364.96 69.233 Q 364.76 68.833 364.56 68.683 Q 364.36 68.533 364.16 68.433 Q 363.96 68.233 363.66 67.983 Q 363.36 67.733 363.16 67.433 Q 362.96 67.233 362.76 66.983 Q 362.56 66.733 362.36 66.433 L 362.06 66.133 Q 361.86 65.833 362.06 66.083 Q 362.26 66.333 362.16 66.933 L 362.16 86.233 Q 362.16 86.733 362.21 87.283 Q 362.26 87.833 362.06 88.333 L 361.86 88.733 Q 361.76 88.833 361.76 88.883 Q 361.76 88.933 361.66 89.033 Q 361.46 89.333 360.86 89.733 Q 360.56 90.133 360.16 90.583 Q 359.76 91.033 359.16 91.133 Q 358.76 91.233 358.41 91.083 Q 358.06 90.933 357.76 90.833 Q 357.36 91.233 357.06 91.683 Q 356.76 92.133 356.36 92.533 Q 355.36 93.433 354.41 92.933 Q 353.46 92.433 352.36 92.333 L 351.56 92.333 Q 351.46 92.333 351.36 92.433 Q 351.26 92.533 351.16 92.433 Q 351.06 92.133 351.06 91.633 L 350.26 92.433 Q 350.16 92.533 349.96 92.633 Q 349.76 92.733 349.56 92.933 Q 349.46 93.033 349.31 93.383 Q 349.16 93.733 348.86 93.733 Q 348.46 93.733 348.31 93.383 Q 348.16 93.033 347.96 92.933 L 347.96 92.883 Q 347.96 92.833 347.86 92.833 Q 347.66 92.733 347.26 92.333 L 346.56 91.733 L 346.26 91.433 L 346.26 91.383 Q 346.26 91.333 346.16 91.333 Q 345.76 90.933 345.56 90.833 L 344.56 90.933 Q 344.46 91.033 344.06 91.233 Q 343.46 91.533 342.86 91.233 Q 342.76 91.333 342.66 91.233 Q 342.56 91.133 342.36 91.133 L 341.21 90.533 Q 340.06 89.933 340.06 90.033 Q 339.66 89.833 339.36 89.633 Q 338.26 88.833 338.26 87.433 L 338.26 21.833 Q 338.26 21.233 338.41 20.933 L 338.76 20.233 Q 339.66 19.133 340.86 19.133 Q 341.16 19.133 341.46 19.083 Q 341.76 19.033 342.06 19.033 Q 342.66 19.033 343.21 19.083 Q 343.76 19.133 344.26 19.133 L 353.56 19.133 Q 354.36 19.133 355.21 19.083 Q 356.06 19.033 356.86 19.033 L 357.66 19.033 Q 358.06 19.033 358.46 19.133 Q 358.56 19.133 358.66 19.183 Q 358.76 19.233 358.86 19.233 Q 359.76 19.533 360.26 20.433 Q 360.46 20.833 360.56 21.133 Q 360.66 21.433 360.66 22.533 L 360.66 24.833 Q 360.86 24.633 360.86 24.533 Q 360.96 24.533 360.96 24.483 L 360.96 24.433 L 361.06 24.333 Q 361.46 23.933 361.56 23.733 Q 361.46 23.833 361.96 23.283 Q 362.46 22.733 362.66 22.633 Q 362.96 22.433 363.21 22.183 Q 363.46 21.933 363.66 21.833 Q 364.46 21.233 365.21 20.733 Q 365.96 20.233 366.76 19.833 Q 366.96 19.633 367.16 19.633 Q 368.36 18.933 369.81 18.633 Q 371.26 18.333 372.66 18.233 Q 373.36 18.233 373.76 18.133 L 375.36 18.133 Q 377.66 18.033 379.66 18.283 Q 381.66 18.533 382.66 19.033 Q 384.26 19.433 385.61 20.083 Q 386.96 20.733 387.86 21.533 L 388.76 22.133 Q 389.16 22.433 389.51 22.733 Q 389.86 23.033 390.16 23.433 Q 392.96 26.233 394.66 30.583 Q 396.36 34.933 396.66 41.233 Q 396.76 42.633 396.76 43.733 L 396.76 46.233 Z M 168.56 76.233 L 167.36 74.133 Q 167.36 74.033 167.06 73.483 Q 166.76 72.933 166.56 72.733 Q 166.36 72.533 166.16 72.433 Q 165.76 72.433 165.76 72.733 Q 165.66 73.733 165.66 74.683 Q 165.66 75.633 165.46 76.633 Q 165.46 76.833 165.36 76.333 Q 165.26 75.833 165.26 75.533 Q 165.16 74.733 165.11 73.833 Q 165.06 72.933 164.96 72.133 L 164.36 72.133 Q 158.36 71.933 153.46 70.433 Q 148.56 68.933 145.06 65.833 L 144.46 65.333 L 143.76 64.633 Q 141.16 61.833 139.51 58.033 Q 137.86 54.233 137.36 49.033 Q 137.26 49.033 137.26 48.833 Q 137.16 48.633 137.16 47.833 Q 137.16 47.733 137.21 47.633 Q 137.26 47.533 137.26 47.433 Q 137.16 46.933 137.16 46.383 L 137.16 45.233 L 137.16 44.533 Q 137.26 38.533 139.06 33.833 Q 140.86 29.133 144.06 25.833 Q 144.26 25.733 144.31 25.633 Q 144.36 25.533 144.46 25.433 Q 144.56 25.333 144.86 25.083 L 145.16 24.833 Q 145.46 24.533 145.66 24.433 Q 153.06 18.133 165.66 18.133 L 167.76 18.133 Q 168.16 18.133 168.26 18.233 Q 169.16 18.233 169.56 18.333 Q 170.96 18.233 171.66 18.533 Q 172.16 18.633 172.66 18.683 Q 173.16 18.733 173.66 18.933 Q 178.86 19.933 182.66 22.383 Q 186.46 24.833 188.96 28.233 Q 189.46 28.633 189.76 29.233 Q 190.06 29.833 190.36 30.333 L 191.16 31.733 Q 191.26 32.033 191.41 32.283 Q 191.56 32.533 191.66 32.833 Q 191.86 33.133 191.96 33.433 L 192.16 34.033 Q 192.66 35.433 193.11 36.933 Q 193.56 38.433 193.76 39.933 Q 193.76 40.333 193.86 40.533 Q 194.06 41.333 194.06 42.133 Q 194.06 42.933 194.16 43.733 L 194.16 48.333 Q 194.16 49.733 192.96 50.633 Q 192.66 50.833 192.26 51.233 Q 192.06 51.733 191.86 51.733 L 191.46 51.333 Q 191.26 51.333 190.86 51.433 Q 190.46 51.533 190.26 51.633 Q 189.86 51.733 189.56 51.783 Q 189.26 51.833 188.86 51.833 Q 188.06 51.933 187.36 52.233 Q 186.66 52.533 185.86 52.733 Q 185.26 52.833 184.56 52.833 L 183.16 52.833 Q 182.26 52.933 181.51 53.233 Q 180.76 53.533 179.96 53.433 Q 179.36 53.333 178.76 53.183 Q 178.16 53.033 177.46 52.933 Q 177.06 53.033 176.71 53.133 Q 176.36 53.233 175.96 53.333 Q 175.66 53.433 175.36 53.433 Q 175.06 53.433 174.76 53.633 Q 174.46 53.833 173.86 54.433 L 187.56 54.433 Q 187.96 54.433 188.41 54.383 Q 188.86 54.333 189.36 54.333 L 189.86 54.333 Q 190.46 54.333 191.26 54.533 Q 191.46 54.533 191.56 54.583 Q 191.66 54.633 191.76 54.633 Q 192.46 54.933 192.76 55.733 Q 192.96 56.333 192.86 56.733 Q 192.86 57.433 192.56 58.333 L 192.26 59.133 Q 191.66 60.733 190.66 61.833 L 189.86 62.833 Q 189.46 63.333 188.96 63.833 L 188.16 64.633 Q 187.76 65.033 187.26 65.433 L 186.66 66.033 Q 186.16 66.533 185.81 67.183 Q 185.46 67.833 185.06 68.433 Q 184.76 68.733 184.66 68.933 Q 184.86 68.733 184.66 69.133 Q 184.46 69.533 184.26 69.333 Q 184.06 69.833 183.81 70.233 Q 183.56 70.633 183.16 71.433 Q 182.96 71.933 182.71 72.383 Q 182.46 72.833 182.26 73.333 Q 181.66 74.433 181.16 75.133 Q 181.06 75.433 180.91 75.683 Q 180.76 75.933 180.56 76.133 L 180.16 76.733 Q 180.06 76.833 179.96 77.033 Q 179.86 77.233 179.66 77.433 Q 179.06 78.133 178.46 78.783 Q 177.86 79.433 177.26 80.133 L 176.56 80.833 Q 176.36 81.133 176.11 81.433 Q 175.86 81.733 175.56 81.933 Q 175.16 82.333 174.96 82.333 Q 174.86 82.933 174.81 83.583 Q 174.76 84.233 174.56 84.833 Q 174.46 85.333 174.46 86.433 Q 174.46 87.533 174.16 87.033 Q 173.76 86.233 174.01 85.183 Q 174.26 84.133 173.76 83.333 Q 173.56 82.933 173.56 83.783 L 173.56 85.433 Q 173.56 86.233 173.36 85.933 Q 172.96 84.933 173.11 83.883 Q 173.26 82.833 173.06 81.833 Q 172.56 81.433 172.11 80.933 Q 171.66 80.433 171.36 80.033 Q 170.96 79.533 170.66 79.083 Q 170.36 78.633 170.06 78.233 Q 169.26 77.433 168.56 76.233 Z M 502.56 76.233 L 501.36 74.133 Q 501.36 74.033 501.06 73.483 Q 500.76 72.933 500.56 72.733 Q 500.36 72.533 500.16 72.433 Q 499.76 72.433 499.76 72.733 Q 499.66 73.733 499.66 74.683 Q 499.66 75.633 499.46 76.633 Q 499.46 76.833 499.36 76.333 Q 499.26 75.833 499.26 75.533 Q 499.16 74.733 499.11 73.833 Q 499.06 72.933 498.96 72.133 L 498.36 72.133 Q 492.36 71.933 487.46 70.433 Q 482.56 68.933 479.06 65.833 L 478.46 65.333 L 477.76 64.633 Q 475.16 61.833 473.51 58.033 Q 471.86 54.233 471.36 49.033 Q 471.26 49.033 471.26 48.833 Q 471.16 48.633 471.16 47.833 Q 471.16 47.733 471.21 47.633 Q 471.26 47.533 471.26 47.433 Q 471.16 46.933 471.16 46.383 L 471.16 45.233 L 471.16 44.533 Q 471.26 38.533 473.06 33.833 Q 474.86 29.133 478.06 25.833 Q 478.26 25.733 478.31 25.633 Q 478.36 25.533 478.46 25.433 Q 478.56 25.333 478.86 25.083 L 479.16 24.833 Q 479.46 24.533 479.66 24.433 Q 487.06 18.133 499.66 18.133 L 501.76 18.133 Q 502.16 18.133 502.26 18.233 Q 503.16 18.233 503.56 18.333 Q 504.96 18.233 505.66 18.533 Q 506.16 18.633 506.66 18.683 Q 507.16 18.733 507.66 18.933 Q 512.86 19.933 516.66 22.383 Q 520.46 24.833 522.96 28.233 Q 523.46 28.633 523.76 29.233 Q 524.06 29.833 524.36 30.333 L 525.16 31.733 Q 525.26 32.033 525.41 32.283 Q 525.56 32.533 525.66 32.833 Q 525.86 33.133 525.96 33.433 L 526.16 34.033 Q 526.66 35.433 527.11 36.933 Q 527.56 38.433 527.76 39.933 Q 527.76 40.333 527.86 40.533 Q 528.06 41.333 528.06 42.133 Q 528.06 42.933 528.16 43.733 L 528.16 48.333 Q 528.16 49.733 526.96 50.633 Q 526.66 50.833 526.26 51.233 Q 526.06 51.733 525.86 51.733 L 525.46 51.333 Q 525.26 51.333 524.86 51.433 Q 524.46 51.533 524.26 51.633 Q 523.86 51.733 523.56 51.783 Q 523.26 51.833 522.86 51.833 Q 522.06 51.933 521.36 52.233 Q 520.66 52.533 519.86 52.733 Q 519.26 52.833 518.56 52.833 L 517.16 52.833 Q 516.26 52.933 515.51 53.233 Q 514.76 53.533 513.96 53.433 Q 513.36 53.333 512.76 53.183 Q 512.16 53.033 511.46 52.933 Q 511.06 53.033 510.71 53.133 Q 510.36 53.233 509.96 53.333 Q 509.66 53.433 509.36 53.433 Q 509.06 53.433 508.76 53.633 Q 508.46 53.833 507.86 54.433 L 521.56 54.433 Q 521.96 54.433 522.41 54.383 Q 522.86 54.333 523.36 54.333 L 523.86 54.333 Q 524.46 54.333 525.26 54.533 Q 525.46 54.533 525.56 54.583 Q 525.66 54.633 525.76 54.633 Q 526.46 54.933 526.76 55.733 Q 526.96 56.333 526.86 56.733 Q 526.86 57.433 526.56 58.333 L 526.26 59.133 Q 525.66 60.733 524.66 61.833 L 523.86 62.833 Q 523.46 63.333 522.96 63.833 L 522.16 64.633 Q 521.76 65.033 521.26 65.433 L 520.66 66.033 Q 520.16 66.533 519.81 67.183 Q 519.46 67.833 519.06 68.433 Q 518.76 68.733 518.66 68.933 Q 518.86 68.733 518.66 69.133 Q 518.46 69.533 518.26 69.333 Q 518.06 69.833 517.81 70.233 Q 517.56 70.633 517.16 71.433 Q 516.96 71.933 516.71 72.383 Q 516.46 72.833 516.26 73.333 Q 515.66 74.433 515.16 75.133 Q 515.06 75.433 514.91 75.683 Q 514.76 75.933 514.56 76.133 L 514.16 76.733 Q 514.06 76.833 513.96 77.033 Q 513.86 77.233 513.66 77.433 Q 513.06 78.133 512.46 78.783 Q 511.86 79.433 511.26 80.133 L 510.56 80.833 Q 510.36 81.133 510.11 81.433 Q 509.86 81.733 509.56 81.933 Q 509.16 82.333 508.96 82.333 Q 508.86 82.933 508.81 83.583 Q 508.76 84.233 508.56 84.833 Q 508.46 85.333 508.46 86.433 Q 508.46 87.533 508.16 87.033 Q 507.76 86.233 508.01 85.183 Q 508.26 84.133 507.76 83.333 Q 507.56 82.933 507.56 83.783 L 507.56 85.433 Q 507.56 86.233 507.36 85.933 Q 506.96 84.933 507.11 83.883 Q 507.26 82.833 507.06 81.833 Q 506.56 81.433 506.11 80.933 Q 505.66 80.433 505.36 80.033 Q 504.96 79.533 504.66 79.083 Q 504.36 78.633 504.06 78.233 Q 503.26 77.433 502.56 76.233 Z M 616.66 76.233 L 615.46 74.133 Q 615.46 74.033 615.16 73.483 Q 614.86 72.933 614.66 72.733 Q 614.46 72.533 614.26 72.433 Q 613.86 72.433 613.86 72.733 Q 613.76 73.733 613.76 74.683 Q 613.76 75.633 613.56 76.633 Q 613.56 76.833 613.46 76.333 Q 613.36 75.833 613.36 75.533 Q 613.26 74.733 613.21 73.833 Q 613.16 72.933 613.06 72.133 L 612.46 72.133 Q 606.46 71.933 601.56 70.433 Q 596.66 68.933 593.16 65.833 L 592.56 65.333 L 591.86 64.633 Q 589.26 61.833 587.61 58.033 Q 585.96 54.233 585.46 49.033 Q 585.36 49.033 585.36 48.833 Q 585.26 48.633 585.26 47.833 Q 585.26 47.733 585.31 47.633 Q 585.36 47.533 585.36 47.433 Q 585.26 46.933 585.26 46.383 L 585.26 45.233 L 585.26 44.533 Q 585.36 38.533 587.16 33.833 Q 588.96 29.133 592.16 25.833 Q 592.36 25.733 592.41 25.633 Q 592.46 25.533 592.56 25.433 Q 592.66 25.333 592.96 25.083 L 593.26 24.833 Q 593.56 24.533 593.76 24.433 Q 601.16 18.133 613.76 18.133 L 615.86 18.133 Q 616.26 18.133 616.36 18.233 Q 617.26 18.233 617.66 18.333 Q 619.06 18.233 619.76 18.533 Q 620.26 18.633 620.76 18.683 Q 621.26 18.733 621.76 18.933 Q 626.96 19.933 630.76 22.383 Q 634.56 24.833 637.06 28.233 Q 637.56 28.633 637.86 29.233 Q 638.16 29.833 638.46 30.333 L 639.26 31.733 Q 639.36 32.033 639.51 32.283 Q 639.66 32.533 639.76 32.833 Q 639.96 33.133 640.06 33.433 L 640.26 34.033 Q 640.76 35.433 641.21 36.933 Q 641.66 38.433 641.86 39.933 Q 641.86 40.333 641.96 40.533 Q 642.16 41.333 642.16 42.133 Q 642.16 42.933 642.26 43.733 L 642.26 48.333 Q 642.26 49.733 641.06 50.633 Q 640.76 50.833 640.36 51.233 Q 640.16 51.733 639.96 51.733 L 639.56 51.333 Q 639.36 51.333 638.96 51.433 Q 638.56 51.533 638.36 51.633 Q 637.96 51.733 637.66 51.783 Q 637.36 51.833 636.96 51.833 Q 636.16 51.933 635.46 52.233 Q 634.76 52.533 633.96 52.733 Q 633.36 52.833 632.66 52.833 L 631.26 52.833 Q 630.36 52.933 629.61 53.233 Q 628.86 53.533 628.06 53.433 Q 627.46 53.333 626.86 53.183 Q 626.26 53.033 625.56 52.933 Q 625.16 53.033 624.81 53.133 Q 624.46 53.233 624.06 53.333 Q 623.76 53.433 623.46 53.433 Q 623.16 53.433 622.86 53.633 Q 622.56 53.833 621.96 54.433 L 635.66 54.433 Q 636.06 54.433 636.51 54.383 Q 636.96 54.333 637.46 54.333 L 637.96 54.333 Q 638.56 54.333 639.36 54.533 Q 639.56 54.533 639.66 54.583 Q 639.76 54.633 639.86 54.633 Q 640.56 54.933 640.86 55.733 Q 641.06 56.333 640.96 56.733 Q 640.96 57.433 640.66 58.333 L 640.36 59.133 Q 639.76 60.733 638.76 61.833 L 637.96 62.833 Q 637.56 63.333 637.06 63.833 L 636.26 64.633 Q 635.86 65.033 635.36 65.433 L 634.76 66.033 Q 634.26 66.533 633.91 67.183 Q 633.56 67.833 633.16 68.433 Q 632.86 68.733 632.76 68.933 Q 632.96 68.733 632.76 69.133 Q 632.56 69.533 632.36 69.333 Q 632.16 69.833 631.91 70.233 Q 631.66 70.633 631.26 71.433 Q 631.06 71.933 630.81 72.383 Q 630.56 72.833 630.36 73.333 Q 629.76 74.433 629.26 75.133 Q 629.16 75.433 629.01 75.683 Q 628.86 75.933 628.66 76.133 L 628.26 76.733 Q 628.16 76.833 628.06 77.033 Q 627.96 77.233 627.76 77.433 Q 627.16 78.133 626.56 78.783 Q 625.96 79.433 625.36 80.133 L 624.66 80.833 Q 624.46 81.133 624.21 81.433 Q 623.96 81.733 623.66 81.933 Q 623.26 82.333 623.06 82.333 Q 622.96 82.933 622.91 83.583 Q 622.86 84.233 622.66 84.833 Q 622.56 85.333 622.56 86.433 Q 622.56 87.533 622.26 87.033 Q 621.86 86.233 622.11 85.183 Q 622.36 84.133 621.86 83.333 Q 621.66 82.933 621.66 83.783 L 621.66 85.433 Q 621.66 86.233 621.46 85.933 Q 621.06 84.933 621.21 83.883 Q 621.36 82.833 621.16 81.833 Q 620.66 81.433 620.21 80.933 Q 619.76 80.433 619.46 80.033 Q 619.06 79.533 618.76 79.083 Q 618.46 78.633 618.16 78.233 Q 617.36 77.433 616.66 76.233 Z M 581.16 24.833 L 581.16 34.233 Q 581.16 34.833 581.21 35.433 Q 581.26 36.033 581.26 36.733 L 581.26 37.533 Q 581.26 37.933 581.06 38.333 Q 580.76 39.133 580.06 39.633 L 580.01 39.633 Q 579.96 39.633 579.96 39.733 Q 579.86 39.733 579.81 39.783 Q 579.76 39.833 579.66 39.833 Q 579.16 40.533 578.76 41.233 Q 578.36 41.933 577.86 42.533 Q 577.76 42.633 577.66 42.783 Q 577.56 42.933 577.36 43.033 Q 577.26 43.033 577.16 43.133 L 577.11 43.183 Q 577.06 43.233 576.96 43.233 Q 576.86 43.333 576.66 44.633 Q 576.46 45.933 576.16 46.333 Q 576.06 46.433 575.76 46.233 Q 575.46 45.633 575.46 44.933 Q 575.36 44.433 575.31 43.833 Q 575.26 43.233 575.06 42.633 L 574.46 42.033 Q 574.26 41.833 573.81 41.333 Q 573.36 40.833 572.86 40.433 L 572.76 40.333 Q 572.66 40.333 572.66 40.383 Q 572.66 40.433 572.56 40.433 Q 572.36 40.633 572.11 40.983 Q 571.86 41.333 571.46 41.433 Q 570.96 41.533 570.66 41.033 Q 570.56 41.133 570.16 41.133 Q 569.76 41.133 569.56 41.033 L 569.06 42.233 Q 568.76 42.933 568.41 43.433 Q 568.06 43.933 567.56 44.433 Q 567.26 44.733 566.96 45.083 Q 566.66 45.433 566.36 45.633 Q 565.96 46.033 565.96 45.833 Q 565.76 44.633 565.81 43.883 Q 565.86 43.133 565.56 41.833 Q 565.36 41.933 565.16 42.133 Q 564.76 42.333 564.76 42.433 Q 564.56 43.133 564.51 43.933 Q 564.46 44.733 564.26 45.433 Q 564.16 45.533 564.01 45.433 Q 563.86 45.333 563.76 45.233 Q 563.66 44.433 563.61 43.733 Q 563.56 43.033 563.36 42.333 Q 563.36 42.133 563.21 42.083 Q 563.06 42.033 562.96 41.933 L 562.86 41.833 Q 562.76 41.733 562.56 41.633 Q 562.56 42.133 562.36 42.333 L 561.86 41.833 L 561.66 41.833 Q 561.56 41.833 561.51 41.683 Q 561.46 41.533 561.36 41.433 Q 561.26 41.533 561.16 41.583 Q 561.06 41.633 560.96 41.733 L 560.56 42.333 L 560.16 42.933 Q 560.06 43.033 560.06 43.183 Q 560.06 43.333 559.96 43.533 Q 559.66 44.433 559.61 45.433 Q 559.56 46.433 559.56 47.433 L 559.56 67.233 Q 559.56 67.733 559.61 68.283 Q 559.66 68.833 559.46 69.333 Q 559.46 69.433 559.41 69.483 Q 559.36 69.533 559.36 69.633 L 559.16 69.833 Q 558.76 70.433 558.46 70.633 Q 558.66 70.433 558.26 70.783 Q 557.86 71.133 557.76 71.333 Q 557.76 71.433 557.66 71.533 Q 557.56 71.733 557.51 72.033 Q 557.46 72.333 557.16 72.233 L 557.16 72.283 Q 557.16 72.333 557.06 72.333 Q 556.86 72.733 556.86 72.833 Q 556.66 73.033 556.51 73.333 Q 556.36 73.633 556.16 73.933 Q 555.36 75.333 555.11 75.783 Q 554.86 76.233 553.96 77.333 L 553.71 77.583 L 553.36 77.933 Q 553.26 78.033 552.96 78.733 Q 552.66 79.433 552.46 79.533 Q 552.36 79.633 552.06 79.133 Q 551.96 78.833 551.96 78.483 Q 551.96 78.133 551.76 77.833 L 551.16 77.133 Q 550.76 76.733 550.46 76.133 Q 549.86 75.333 549.46 74.433 Q 549.06 73.533 548.56 72.633 Q 548.56 72.533 548.51 72.533 Q 548.46 72.533 548.46 72.433 Q 548.16 72.133 548.16 72.333 Q 547.96 73.133 548.01 74.033 Q 548.06 74.933 547.76 75.733 Q 547.66 76.033 547.56 75.433 Q 547.46 74.833 547.36 74.533 L 546.56 72.233 L 546.56 72.133 Q 546.261 72.432 546.161 72.433 Q 545.96 72.433 545.76 72.233 Q 545.46 72.933 545.21 73.633 Q 544.96 74.333 544.56 75.133 Q 544.46 75.233 544.41 75.483 Q 544.36 75.733 544.16 75.933 Q 544.06 76.033 543.96 76.383 Q 543.86 76.733 543.76 76.533 Q 543.46 74.933 543.66 74.483 Q 543.86 74.033 543.06 72.733 Q 542.76 72.933 542.56 73.333 Q 542.46 74.033 542.41 74.833 Q 542.36 75.633 542.16 76.433 Q 542.16 76.533 541.91 77.083 Q 541.66 77.633 541.36 77.733 Q 540.86 77.833 540.56 77.033 Q 540.26 76.233 540.16 76.033 Q 539.76 75.133 539.61 74.183 Q 539.46 73.233 539.06 72.433 L 538.66 72.033 L 538.26 71.633 Q 537.96 71.433 537.96 71.233 Q 537.76 71.133 537.36 71.133 Q 537.26 71.133 537.21 71.083 Q 537.16 71.033 536.96 71.033 Q 536.16 70.733 535.66 70.033 Q 535.46 69.833 535.26 69.233 Q 535.06 68.533 535.11 67.633 Q 535.16 66.733 535.16 66.033 L 535.16 30.033 L 535.16 26.683 Q 535.16 24.833 535.06 22.933 Q 535.06 22.433 535.11 21.883 Q 535.16 21.333 535.26 20.933 Q 535.56 20.033 536.36 19.533 Q 536.86 19.333 537.16 19.233 Q 537.46 19.133 538.06 19.133 Q 538.76 19.033 539.46 19.083 Q 540.16 19.133 540.76 19.133 L 552.36 19.133 Q 553.16 19.133 554.06 19.033 Q 554.96 18.933 555.76 19.133 Q 556.06 19.133 556.26 19.233 Q 557.26 19.533 557.56 20.333 Q 558.06 21.033 558.06 21.833 L 558.06 25.333 L 558.66 24.733 Q 558.86 24.633 558.96 24.533 L 559.06 24.433 Q 559.26 24.233 560.11 23.633 Q 560.96 23.033 561.36 22.833 Q 561.96 22.333 562.61 21.983 Q 563.26 21.633 563.86 21.333 Q 564.66 20.833 565.61 20.533 Q 566.56 20.233 567.56 20.033 Q 570.46 19.133 573.66 19.133 L 575.36 19.133 Q 575.86 19.133 576.46 19.083 Q 577.06 19.033 577.66 19.033 Q 578.36 19.033 579.01 19.133 Q 579.66 19.233 580.06 19.633 Q 580.66 20.033 580.96 20.733 Q 581.16 21.333 581.16 21.733 L 581.16 22.233 Q 581.26 22.933 581.21 23.583 Q 581.16 24.233 581.16 24.833 Z M 367.26 54.233 L 368.06 54.133 Q 368.46 54.033 368.81 53.983 Q 369.16 53.933 369.46 53.833 L 369.96 53.533 Q 371.06 52.733 371.46 51.633 Q 371.96 50.433 372.16 48.433 Q 372.26 47.933 372.26 47.433 L 372.26 46.533 L 372.26 43.633 Q 372.26 43.133 372.21 42.533 Q 372.16 41.933 372.06 41.333 Q 372.06 40.833 371.96 40.533 Q 371.86 39.333 371.36 38.433 Q 370.86 37.433 370.26 36.933 Q 369.86 36.633 369.51 36.633 L 368.66 36.633 L 366.96 36.633 Q 366.06 36.633 365.26 36.733 Q 364.96 36.833 364.56 36.883 Q 364.16 36.933 363.86 37.133 Q 363.16 37.833 362.81 38.733 Q 362.46 39.633 362.26 40.633 Q 362.26 41.033 362.21 41.483 Q 362.16 41.933 362.16 42.333 Q 362.06 42.833 362.06 43.383 L 362.06 44.433 Q 361.96 45.533 362.01 46.633 Q 362.06 47.733 362.16 49.233 L 362.16 49.733 Q 362.26 49.833 362.26 50.133 Q 362.46 51.033 362.81 51.883 Q 363.16 52.733 363.86 53.333 Q 364.86 54.033 366.26 54.133 Q 366.46 54.233 366.76 54.233 L 367.26 54.233 Z M 373.76 78.533 L 373.76 78.633 Q 373.96 80.233 374.26 81.933 Q 374.56 83.633 374.66 85.333 L 374.66 85.933 Q 374.76 85.633 374.76 85.383 Q 374.76 85.133 374.86 84.933 Q 374.86 84.733 374.91 84.333 L 374.96 83.933 Q 375.26 81.633 375.31 79.183 Q 375.36 76.733 374.06 75.333 Q 373.76 74.933 373.56 74.933 Q 373.46 75.033 373.46 75.233 L 373.36 75.233 L 373.36 75.183 Q 373.36 75.133 373.26 75.033 Q 372.96 74.633 372.86 74.633 Q 372.76 74.733 372.81 75.183 Q 372.86 75.633 372.86 75.733 Q 372.96 76.533 373.11 77.333 Q 373.26 78.133 373.36 78.933 L 373.56 80.033 Q 373.66 79.733 373.66 79.433 Q 373.66 79.133 373.76 78.833 L 373.76 78.733 Q 373.46 77.033 373.41 76.383 Q 373.36 75.733 373.46 75.333 Q 373.86 76.133 373.86 77.333 L 373.86 77.933 Q 373.86 78.233 373.76 78.533 Z M 168.06 56.233 L 168.96 55.333 Q 169.76 54.733 170.16 54.633 Q 170.56 54.533 171.06 54.433 Q 170.36 54.233 169.71 54.033 Q 169.06 53.833 168.36 53.633 Q 167.26 53.233 166.21 52.733 Q 165.16 52.233 164.06 51.833 L 162.06 51.233 Q 161.86 51.033 161.66 51.033 L 161.66 51.533 Q 161.66 51.633 161.71 52.383 Q 161.76 53.133 161.76 53.333 Q 161.86 54.433 162.31 55.483 Q 162.76 56.533 163.56 57.133 L 164.36 57.433 Q 164.46 57.533 164.76 57.533 Q 164.96 57.633 165.96 57.633 Q 166.56 57.433 167.11 57.033 Q 167.66 56.633 168.06 56.233 Z M 502.06 56.233 L 502.96 55.333 Q 503.76 54.733 504.16 54.633 Q 504.56 54.533 505.06 54.433 Q 504.36 54.233 503.71 54.033 Q 503.06 53.833 502.36 53.633 Q 501.26 53.233 500.21 52.733 Q 499.16 52.233 498.06 51.833 L 496.06 51.233 Q 495.86 51.033 495.66 51.033 L 495.66 51.533 Q 495.66 51.633 495.71 52.383 Q 495.76 53.133 495.76 53.333 Q 495.86 54.433 496.31 55.483 Q 496.76 56.533 497.56 57.133 L 498.36 57.433 Q 498.46 57.533 498.76 57.533 Q 498.96 57.633 499.96 57.633 Q 500.56 57.433 501.11 57.033 Q 501.66 56.633 502.06 56.233 Z M 616.16 56.233 L 617.06 55.333 Q 617.86 54.733 618.26 54.633 Q 618.66 54.533 619.16 54.433 Q 618.46 54.233 617.81 54.033 Q 617.16 53.833 616.46 53.633 Q 615.36 53.233 614.31 52.733 Q 613.26 52.233 612.16 51.833 L 610.16 51.233 Q 609.96 51.033 609.76 51.033 L 609.76 51.533 Q 609.76 51.633 609.81 52.383 Q 609.86 53.133 609.86 53.333 Q 609.96 54.433 610.41 55.483 Q 610.86 56.533 611.66 57.133 L 612.46 57.433 Q 612.56 57.533 612.86 57.533 Q 613.06 57.633 614.06 57.633 Q 614.66 57.433 615.21 57.033 Q 615.76 56.633 616.16 56.233 Z M 162.06 38.533 L 162.56 38.533 Q 163.86 38.533 165.16 38.483 Q 166.46 38.433 167.76 38.533 L 169.66 38.433 L 169.66 37.233 Q 169.56 37.133 169.56 37.033 Q 169.56 36.633 169.51 36.133 Q 169.46 35.633 169.36 35.233 L 168.76 33.833 Q 168.66 33.733 168.66 33.683 Q 168.66 33.633 168.56 33.533 Q 168.06 32.833 167.46 32.633 Q 167.46 32.533 167.16 32.533 L 167.06 32.533 Q 166.36 32.533 165.66 32.583 Q 164.96 32.633 164.26 32.733 Q 164.06 32.833 163.71 32.883 Q 163.36 32.933 163.06 33.133 Q 162.96 33.233 162.96 33.283 Q 162.96 33.333 162.86 33.433 Q 162.66 33.633 162.56 33.933 Q 162.46 34.233 162.26 34.433 Q 161.66 36.033 161.71 36.733 Q 161.76 37.433 162.06 38.533 Z M 496.06 38.533 L 496.56 38.533 Q 497.86 38.533 499.16 38.483 Q 500.46 38.433 501.76 38.533 L 503.66 38.433 L 503.66 37.233 Q 503.56 37.133 503.56 37.033 Q 503.56 36.633 503.51 36.133 Q 503.46 35.633 503.36 35.233 L 502.76 33.833 Q 502.66 33.733 502.66 33.683 Q 502.66 33.633 502.56 33.533 Q 502.06 32.833 501.46 32.633 Q 501.46 32.533 501.16 32.533 L 501.06 32.533 Q 500.36 32.533 499.66 32.583 Q 498.96 32.633 498.26 32.733 Q 498.06 32.833 497.71 32.883 Q 497.36 32.933 497.06 33.133 Q 496.96 33.233 496.96 33.283 Q 496.96 33.333 496.86 33.433 Q 496.66 33.633 496.56 33.933 Q 496.46 34.233 496.26 34.433 Q 495.66 36.033 495.71 36.733 Q 495.76 37.433 496.06 38.533 Z M 610.16 38.533 L 610.66 38.533 Q 611.96 38.533 613.26 38.483 Q 614.56 38.433 615.86 38.533 L 617.76 38.433 L 617.76 37.233 Q 617.66 37.133 617.66 37.033 Q 617.66 36.633 617.61 36.133 Q 617.56 35.633 617.46 35.233 L 616.86 33.833 Q 616.76 33.733 616.76 33.683 Q 616.76 33.633 616.66 33.533 Q 616.16 32.833 615.56 32.633 Q 615.56 32.533 615.26 32.533 L 615.16 32.533 Q 614.46 32.533 613.76 32.583 Q 613.06 32.633 612.36 32.733 Q 612.16 32.833 611.81 32.883 Q 611.46 32.933 611.16 33.133 Q 611.06 33.233 611.06 33.283 Q 611.06 33.333 610.96 33.433 Q 610.76 33.633 610.66 33.933 Q 610.56 34.233 610.36 34.433 Q 609.76 36.033 609.81 36.733 Q 609.86 37.433 610.16 38.533 Z M 8.66 75.533 Q 8.26 76.533 8.46 78.483 Q 8.66 80.433 9.06 82.433 Q 9.16 80.333 9.21 78.333 Q 9.26 76.333 9.16 75.383 Q 9.06 74.433 8.66 75.533 Z M 370.56 73.533 L 370.46 73.533 L 370.46 74.433 Q 370.46 74.933 370.51 75.483 Q 370.56 76.033 370.66 76.533 Q 370.76 76.733 370.76 77.033 Q 370.76 77.333 370.86 77.633 Q 370.96 77.433 370.96 77.183 Q 370.96 76.933 371.06 76.733 Q 371.16 76.133 371.21 75.583 Q 371.26 75.033 371.26 74.433 L 371.26 74.033 L 370.96 73.933 L 370.86 73.833 L 370.56 73.533 Z M 371.06 86.333 L 371.26 84.933 Q 371.36 84.233 371.26 83.633 Q 371.16 83.633 371.01 83.533 Q 370.86 83.433 370.96 83.433 Q 370.86 83.333 370.86 83.283 Q 370.86 83.233 370.76 83.133 Q 370.66 83.033 370.66 82.883 Q 370.66 82.733 370.56 82.633 Q 370.66 83.533 370.81 84.483 Q 370.96 85.433 371.06 86.333 Z M 372.06 74.433 L 372.06 75.333 L 372.26 77.333 Q 372.36 76.833 372.41 76.483 Q 372.46 76.133 372.46 75.433 L 372.46 74.633 Q 372.26 74.433 372.06 74.433 Z M 369.06 72.533 Q 368.96 72.333 369.06 72.533" vector-effect="non-scaling-stroke"/></g></svg>
